<svg id="charts" xmlns="http://www.w3.org/2000/svg" width="82.003" height="82.003" viewBox="0 0 82.003 82.003">
  <g id="Group_106" data-name="Group 106" transform="translate(3.143 36.901)">
    <circle id="Ellipse_19" data-name="Ellipse 19" cx="2.733" cy="2.733" r="2.733" transform="translate(14.624 6.833)" fill="#fff"/>
    <circle id="Ellipse_20" data-name="Ellipse 20" cx="2.733" cy="2.733" r="2.733" transform="translate(31.024 16.401)" fill="#fff"/>
    <circle id="Ellipse_21" data-name="Ellipse 21" cx="2.733" cy="2.733" r="2.733" transform="translate(47.425)" fill="#fff"/>
    <path id="Path_179" data-name="Path 179" d="M21.539,264.479l-1.913-1.941,16.565-16.4a1.366,1.366,0,0,1,1.654-.205l15.321,9.034L68.814,239.3a1.367,1.367,0,0,1,1.845-.082l16.4,13.667-1.749,2.1L69.866,242.12,54.354,257.646a1.367,1.367,0,0,1-1.667.205l-15.321-9.034Z" transform="translate(-19.626 -237.541)" fill="#fff"/>
  </g>
  <g id="Group_107" data-name="Group 107" transform="translate(3.184 7.025)">
    <circle id="Ellipse_22" data-name="Ellipse 22" cx="2.733" cy="2.733" r="2.733" transform="translate(14.583 18.943)" fill="#fff"/>
    <circle id="Ellipse_23" data-name="Ellipse 23" cx="2.733" cy="2.733" r="2.733" transform="translate(29.617 2.542)" fill="#fff"/>
    <circle id="Ellipse_24" data-name="Ellipse 24" cx="2.733" cy="2.733" r="2.733" transform="translate(47.384 8.009)" fill="#fff"/>
    <path id="Path_180" data-name="Path 180" d="M21.713,81.583l-1.831-2.023L36.1,64.868,51.221,48.386A1.365,1.365,0,0,1,52.588,48l17.193,5.125,15.936-9.266,1.367,2.351-16.4,9.567a1.371,1.371,0,0,1-1.08.137L52.656,50.859,38.032,66.809Z" transform="translate(-19.882 -43.862)" fill="#fff"/>
  </g>
  <g id="Group_108" data-name="Group 108">
    <path id="Path_181" data-name="Path 181" d="M96.336,71.069h-77.9A1.367,1.367,0,0,1,17.067,69.7V0H19.8V68.336H96.336Z" transform="translate(-14.334)" fill="#fff"/>
    <rect id="Rectangle_85" data-name="Rectangle 85" width="4.1" height="2.733" transform="translate(0 51.935)" fill="#fff"/>
    <rect id="Rectangle_86" data-name="Rectangle 86" width="4.1" height="2.733" transform="translate(0 35.535)" fill="#fff"/>
    <rect id="Rectangle_87" data-name="Rectangle 87" width="4.1" height="2.733" transform="translate(0 19.134)" fill="#fff"/>
    <rect id="Rectangle_88" data-name="Rectangle 88" width="2.733" height="4.1" transform="translate(51.935 69.702)" fill="#fff"/>
    <rect id="Rectangle_89" data-name="Rectangle 89" width="2.733" height="4.1" transform="translate(35.535 69.702)" fill="#fff"/>
    <rect id="Rectangle_90" data-name="Rectangle 90" width="2.733" height="4.1" transform="translate(19.134 69.702)" fill="#fff"/>
    <rect id="Rectangle_91" data-name="Rectangle 91" width="2.733" height="4.1" transform="translate(68.336 69.702)" fill="#fff"/>
  </g>
  <g id="Group_109" data-name="Group 109" transform="translate(25.968 79.269)">
    <rect id="Rectangle_92" data-name="Rectangle 92" width="2.733" height="2.733" fill="#fff"/>
    <rect id="Rectangle_93" data-name="Rectangle 93" width="2.733" height="2.733" transform="translate(5.467)" fill="#fff"/>
    <rect id="Rectangle_94" data-name="Rectangle 94" width="2.733" height="2.733" transform="translate(10.934)" fill="#fff"/>
    <rect id="Rectangle_95" data-name="Rectangle 95" width="2.733" height="2.733" transform="translate(16.401)" fill="#fff"/>
    <rect id="Rectangle_96" data-name="Rectangle 96" width="2.733" height="2.733" transform="translate(21.868)" fill="#fff"/>
    <rect id="Rectangle_97" data-name="Rectangle 97" width="2.733" height="2.733" transform="translate(27.334)" fill="#fff"/>
  </g>
  <rect id="Rectangle_98" data-name="Rectangle 98" width="4.1" height="2.733" transform="translate(0 2.733)" fill="#fff"/>
  <circle id="Ellipse_25" data-name="Ellipse 25" cx="2.733" cy="2.733" r="2.733" transform="translate(66.969 50.568)" fill="#fff"/>
  <circle id="Ellipse_26" data-name="Ellipse 26" cx="2.733" cy="2.733" r="2.733" transform="translate(66.969 5.467)" fill="#fff"/>
</svg>
