<svg id="clipboard" xmlns="http://www.w3.org/2000/svg" width="205.516" height="205.516" viewBox="0 0 205.516 205.516">
  <circle id="Ellipse_16" data-name="Ellipse 16" cx="102.758" cy="102.758" r="102.758" fill="#90dfaa"/>
  <path id="Path_142" data-name="Path 142" d="M226.007,233.034H122.313a1.911,1.911,0,0,1-1.913-1.913V99.713a1.91,1.91,0,0,1,1.913-1.913H226.047a1.911,1.911,0,0,1,1.913,1.913V231.162A1.966,1.966,0,0,1,226.007,233.034Z" transform="translate(-71.402 -57.999)" fill="#324a5e"/>
  <path id="Path_143" data-name="Path 143" d="M146.4,116.8V223.75h71.3V208.733h15.058V116.8Z" transform="translate(-86.821 -69.267)" fill="#fff"/>
  <path id="Path_144" data-name="Path 144" d="M321.6,357.717,336.658,342.7H321.6Z" transform="translate(-190.721 -203.234)" fill="#e6e9ee"/>
  <path id="Path_145" data-name="Path 145" d="M226.865,70.536V67.565a8.465,8.465,0,0,0-16.93,0v2.971H195V87.872h46.841V70.536Z" transform="translate(-115.642 -35.049)" fill="#ff7058"/>
  <circle id="Ellipse_17" data-name="Ellipse 17" cx="4.232" cy="4.232" r="4.232" transform="translate(98.526 28.284)" fill="#90dfaa"/>
  <path id="Path_146" data-name="Path 146" d="M224.825,238.825H176.6V190.6h48.225ZM181.361,234.1H220.1V195.361H181.361Z" transform="translate(-104.73 -113.033)" fill="#e6e9ee"/>
  <path id="Path_147" data-name="Path 147" d="M218.044,223.131,200.3,205.388,208.683,197l9.36,9.36,26-25.964,8.383,8.383Z" transform="translate(-118.785 -106.984)" fill="#54c0eb"/>
</svg>
