<svg xmlns="http://www.w3.org/2000/svg" width="206.057" height="206.057" viewBox="0 0 206.057 206.057">
  <g id="form" transform="translate(-8.6 -8.6)">
    <g id="Group_24" data-name="Group 24" transform="translate(8.6 8.6)">
      <circle id="Ellipse_14" data-name="Ellipse 14" cx="103.028" cy="103.028" r="103.028" fill="#382b73"/>
      <circle id="Ellipse_15" data-name="Ellipse 15" cx="87.331" cy="87.331" r="87.331" transform="translate(15.697 15.697)" fill="#473080"/>
    </g>
    <g id="Group_25" data-name="Group 25" transform="translate(50.159 47.046)">
      <path id="Path_104" data-name="Path 104" d="M214.946,116.234a6.906,6.906,0,0,0-9.766,0l-2.26,2.26-3.885,3.885,9.766,9.766L214.946,126A6.9,6.9,0,0,0,214.946,116.234Z" transform="translate(-81.689 -65.016)" fill="#382b73"/>
      <path id="Path_105" data-name="Path 105" d="M196.015,121.113l-21.157,21.157V74.149a5.849,5.849,0,0,0-5.849-5.849h-22.9a5.848,5.848,0,0,0-3.259-1.846V65.7a1.949,1.949,0,0,0-1.95-1.95H112.627a1.95,1.95,0,0,0-1.95,1.95v.754a5.848,5.848,0,0,0-3.259,1.846h-22.9a5.849,5.849,0,0,0-5.849,5.849V196.825a5.849,5.849,0,0,0,5.849,5.849H169.01a5.849,5.849,0,0,0,5.849-5.849V161.8l30.924-30.924Z" transform="translate(-78.668 -63.75)" fill="#382b73"/>
    </g>
    <g id="Group_39" data-name="Group 39" transform="translate(50.158 42.166)">
      <g id="Group_35" data-name="Group 35">
        <path id="Path_106" data-name="Path 106" d="M169.008,195.891H84.516a5.849,5.849,0,0,1-5.849-5.849V71.266a5.849,5.849,0,0,1,5.849-5.849h84.492a5.849,5.849,0,0,1,5.849,5.849V190.042A5.851,5.851,0,0,1,169.008,195.891Z" transform="translate(-78.667 -56.967)" fill="#e7ad27"/>
        <path id="Path_107" data-name="Path 107" d="M169.008,191.891H84.516a5.849,5.849,0,0,1-5.849-5.849V67.266a5.849,5.849,0,0,1,5.849-5.849h84.492a5.849,5.849,0,0,1,5.849,5.849V186.042A5.851,5.851,0,0,1,169.008,191.891Z" transform="translate(-78.667 -56.867)" fill="#fede3a"/>
        <path id="Path_108" data-name="Path 108" d="M163.676,186.53H90.233a3.9,3.9,0,0,1-3.9-3.9V75.067a3.9,3.9,0,0,1,3.9-3.9h73.443a3.9,3.9,0,0,1,3.9,3.9V182.631A3.9,3.9,0,0,1,163.676,186.53Z" transform="translate(-78.859 -57.112)" fill="#d1d3d4"/>
        <path id="Path_109" data-name="Path 109" d="M163.676,184.53H90.233a3.9,3.9,0,0,1-3.9-3.9V73.067a3.9,3.9,0,0,1,3.9-3.9h73.443a3.9,3.9,0,0,1,3.9,3.9V180.631A3.9,3.9,0,0,1,163.676,184.53Z" transform="translate(-78.859 -57.062)" fill="#fff"/>
        <path id="Path_110" data-name="Path 110" d="M144.4,69.167v3.575a1.952,1.952,0,0,1-1.95,1.95H112.474a1.952,1.952,0,0,1-1.95-1.95V69.167h-3.9v3.575a5.855,5.855,0,0,0,5.849,5.849h29.978a5.855,5.855,0,0,0,5.849-5.849V69.167Z" transform="translate(-79.369 -57.062)" fill="#e6e7e8"/>
        <g id="Group_26" data-name="Group 26" transform="translate(27.256 2.6)">
          <path id="Path_111" data-name="Path 111" d="M142.453,76.4H112.474a5.855,5.855,0,0,1-5.849-5.849v-5.28a5.855,5.855,0,0,1,5.849-5.849h29.978a5.855,5.855,0,0,1,5.849,5.849v5.28A5.855,5.855,0,0,1,142.453,76.4ZM112.474,63.317a1.952,1.952,0,0,0-1.95,1.95v5.28a1.952,1.952,0,0,0,1.95,1.95h29.978a1.952,1.952,0,0,0,1.95-1.95v-5.28a1.952,1.952,0,0,0-1.95-1.95Z" transform="translate(-106.625 -59.417)" fill="#1caee4"/>
        </g>
        <path id="Path_112" data-name="Path 112" d="M142.5,61.417H112.525a3.9,3.9,0,0,0-3.9,3.9V70.6a3.9,3.9,0,0,0,3.9,3.9H142.5a3.9,3.9,0,0,0,3.9-3.9V65.317A3.9,3.9,0,0,0,142.5,61.417Zm1.95,9.18a1.952,1.952,0,0,1-1.95,1.95H112.525a1.952,1.952,0,0,1-1.95-1.95v-5.28a1.952,1.952,0,0,1,1.95-1.95H142.5a1.952,1.952,0,0,1,1.95,1.95Z" transform="translate(-79.419 -56.867)" fill="#009add"/>
        <path id="Path_113" data-name="Path 113" d="M141.722,65.849H113.45a1.95,1.95,0,0,1-1.95-1.95V58.7a1.95,1.95,0,0,1,1.95-1.95h28.272a1.949,1.949,0,0,1,1.95,1.95v5.2A1.949,1.949,0,0,1,141.722,65.849Z" transform="translate(-79.491 -56.75)" fill="#1caee4"/>
        <path id="Path_114" data-name="Path 114" d="M141.722,56.75H113.45a1.95,1.95,0,0,0-1.95,1.95v1.421a1.951,1.951,0,0,1,1.95-1.95h28.272a1.95,1.95,0,0,1,1.95,1.95V58.7A1.949,1.949,0,0,0,141.722,56.75Z" transform="translate(-79.491 -56.75)" fill="#27c1e6"/>
        <path id="Path_115" data-name="Path 115" d="M141.722,62.1H113.45a1.95,1.95,0,0,1-1.95-1.95v3.838a1.95,1.95,0,0,0,1.95,1.95h28.272a1.949,1.949,0,0,0,1.95-1.95V60.146A1.95,1.95,0,0,1,141.722,62.1Z" transform="translate(-79.491 -56.835)" fill="#009add"/>
        <g id="Group_30" data-name="Group 30" transform="translate(16.78 26.548)">
          <path id="Path_116" data-name="Path 116" d="M156.558,118.5H97.83a1.951,1.951,0,0,1-1.95-1.95V94.385a1.95,1.95,0,0,1,1.95-1.95h58.729a1.949,1.949,0,0,1,1.95,1.95v22.162A1.951,1.951,0,0,1,156.558,118.5Z" transform="translate(-95.879 -84.193)" fill="#e6e7e8"/>
          <g id="Group_27" data-name="Group 27">
            <path id="Path_117" data-name="Path 117" d="M118.293,87.766H97.771a1.892,1.892,0,0,1-1.892-1.892h0a1.892,1.892,0,0,1,1.892-1.892h20.521a1.892,1.892,0,0,1,1.892,1.892h0A1.891,1.891,0,0,1,118.293,87.766Z" transform="translate(-95.879 -83.981)" fill="#d1d3d4"/>
          </g>
          <g id="Group_28" data-name="Group 28" transform="translate(28.205)">
            <path id="Path_118" data-name="Path 118" d="M137,87.766H126.7a1.892,1.892,0,0,1-1.892-1.892h0a1.892,1.892,0,0,1,1.892-1.892H137a1.892,1.892,0,0,1,1.892,1.892h0A1.892,1.892,0,0,1,137,87.766Z" transform="translate(-124.81 -83.981)" fill="#d1d3d4"/>
          </g>
          <path id="Path_119" data-name="Path 119" d="M131.6,100.2h-29A1.892,1.892,0,0,1,100.7,98.3h0a1.892,1.892,0,0,1,1.892-1.892h29A1.892,1.892,0,0,1,133.49,98.3h0A1.894,1.894,0,0,1,131.6,100.2Z" transform="translate(-96 -84.293)" fill="#bcbec0"/>
          <path id="Path_120" data-name="Path 120" d="M122.314,114.43H102.594a1.892,1.892,0,0,1-1.892-1.892h0a1.892,1.892,0,0,1,1.892-1.892h19.719a1.892,1.892,0,0,1,1.892,1.892h0A1.892,1.892,0,0,1,122.314,114.43Z" transform="translate(-96 -84.65)" fill="#bcbec0"/>
          <path id="Path_121" data-name="Path 121" d="M151.654,100.2H140.226a1.892,1.892,0,0,1-1.892-1.892h0a1.892,1.892,0,0,1,1.892-1.892h11.428a1.892,1.892,0,0,1,1.892,1.892h0A1.893,1.893,0,0,1,151.654,100.2Z" transform="translate(-96.944 -84.293)" fill="#bcbec0"/>
          <g id="Group_29" data-name="Group 29" transform="translate(4.653 19.056)">
            <path id="Path_122" data-name="Path 122" d="M145.1,107.313H102.544a1.892,1.892,0,0,1-1.892-1.892h0a1.892,1.892,0,0,1,1.892-1.892H145.1A1.892,1.892,0,0,1,147,105.42h0A1.893,1.893,0,0,1,145.1,107.313Z" transform="translate(-100.652 -103.528)" fill="#bcbec0"/>
          </g>
        </g>
        <g id="Group_34" data-name="Group 34" transform="translate(16.78 82.929)">
          <path id="Path_123" data-name="Path 123" d="M156.558,176.329H97.83a1.95,1.95,0,0,1-1.95-1.95V152.218a1.951,1.951,0,0,1,1.95-1.95h58.729a1.95,1.95,0,0,1,1.95,1.95v22.162A1.951,1.951,0,0,1,156.558,176.329Z" transform="translate(-95.879 -142.026)" fill="#e6e7e8"/>
          <g id="Group_31" data-name="Group 31">
            <path id="Path_124" data-name="Path 124" d="M133.71,145.6H97.771a1.892,1.892,0,0,1-1.892-1.892h0a1.892,1.892,0,0,1,1.892-1.892H133.71a1.892,1.892,0,0,1,1.892,1.892h0A1.892,1.892,0,0,1,133.71,145.6Z" transform="translate(-95.879 -141.814)" fill="#d1d3d4"/>
          </g>
          <g id="Group_32" data-name="Group 32" transform="translate(43.623)">
            <path id="Path_125" data-name="Path 125" d="M150.066,145.6h-7.549a1.892,1.892,0,0,1-1.892-1.892h0a1.892,1.892,0,0,1,1.892-1.892h7.549a1.892,1.892,0,0,1,1.892,1.892h0A1.892,1.892,0,0,1,150.066,145.6Z" transform="translate(-140.625 -141.814)" fill="#d1d3d4"/>
          </g>
          <path id="Path_126" data-name="Path 126" d="M131.6,158.361h-29a1.892,1.892,0,0,1-1.892-1.892h0a1.892,1.892,0,0,1,1.892-1.892h29a1.892,1.892,0,0,1,1.892,1.892h0A1.894,1.894,0,0,1,131.6,158.361Z" transform="translate(-96 -142.134)" fill="#bcbec0"/>
          <path id="Path_127" data-name="Path 127" d="M122.314,172.594H102.594A1.892,1.892,0,0,1,100.7,170.7h0a1.892,1.892,0,0,1,1.892-1.892h19.719a1.892,1.892,0,0,1,1.892,1.892h0A1.892,1.892,0,0,1,122.314,172.594Z" transform="translate(-96 -142.491)" fill="#bcbec0"/>
          <path id="Path_128" data-name="Path 128" d="M151.654,158.361H140.226a1.892,1.892,0,0,1-1.892-1.892h0a1.892,1.892,0,0,1,1.892-1.892h11.428a1.892,1.892,0,0,1,1.892,1.892h0A1.893,1.893,0,0,1,151.654,158.361Z" transform="translate(-96.944 -142.134)" fill="#bcbec0"/>
          <g id="Group_33" data-name="Group 33" transform="translate(4.653 19.38)">
            <path id="Path_129" data-name="Path 129" d="M145.1,165.478H102.544a1.892,1.892,0,0,1-1.892-1.892h0a1.892,1.892,0,0,1,1.892-1.892H145.1A1.892,1.892,0,0,1,147,163.585h0A1.893,1.893,0,0,1,145.1,165.478Z" transform="translate(-100.652 -161.693)" fill="#bcbec0"/>
          </g>
        </g>
        <rect id="Rectangle_67" data-name="Rectangle 67" width="81.242" height="2.762" transform="translate(7.474 71.736)" fill="#e6e7e8"/>
      </g>
      <g id="Group_36" data-name="Group 36" transform="translate(69.067 83.395)">
        <path id="Path_130" data-name="Path 130" d="M169.667,149.767V169.3l7.474-7.474V142.292Z" transform="translate(-150.018 -142.292)" fill="#e7ad27"/>
        <path id="Path_131" data-name="Path 131" d="M169.161,149.959,152.925,166.2l-2.259,7.988-1.116,3.948a.966.966,0,0,0,.248.953l0,0a.974.974,0,0,0,.521.272l.015,0,.029,0,.048,0h.012l.051,0h.014a.986.986,0,0,0,.266-.038l11.938-3.375,6.469-6.469V149.959Z" transform="translate(-149.512 -142.484)" fill="#bcbec0"/>
        <path id="Path_132" data-name="Path 132" d="M150.357,180.118l-.015,0Z" transform="translate(-149.533 -143.241)" fill="#e7ad27"/>
        <path id="Path_133" data-name="Path 133" d="M150.357,180.118l.029,0h0l-.029,0Z" transform="translate(-149.533 -143.241)" fill="#e7ad27"/>
        <path id="Path_134" data-name="Path 134" d="M150.387,180.122l.048,0Z" transform="translate(-149.534 -143.241)" fill="#e7ad27"/>
        <path id="Path_135" data-name="Path 135" d="M150.325,180.113l.016,0h0Z" transform="translate(-149.533 -143.241)" fill="#e7ad27"/>
      </g>
      <g id="Group_38" data-name="Group 38" transform="translate(69.068 49.195)">
        <rect id="Rectangle_68" data-name="Rectangle 68" width="13.811" height="5.495" transform="translate(52.165 4.281) rotate(45)" fill="#fede3a"/>
        <rect id="Rectangle_69" data-name="Rectangle 69" width="6.174" height="5.495" transform="translate(54.864 6.981) rotate(45)" fill="#fff335"/>
        <path id="Path_136" data-name="Path 136" d="M215.046,109.234h0a6.906,6.906,0,0,0-9.766,0l-2.26,2.26,9.766,9.766,2.26-2.26A6.906,6.906,0,0,0,215.046,109.234Z" transform="translate(-150.856 -107.212)" fill="#1caee4"/>
        <path id="Path_137" data-name="Path 137" d="M215.114,109.262h0a3.2,3.2,0,0,0-4.52,0l-4.883,4.883,4.52,4.52,4.883-4.883A3.194,3.194,0,0,0,215.114,109.262Z" transform="translate(-150.923 -107.239)" fill="#27c1e6"/>
        <path id="Path_138" data-name="Path 138" d="M162.692,171.379l-9.766-9.766-3.375,11.938a.974.974,0,0,0,1.2,1.2Z" transform="translate(-149.513 -108.577)" fill="#fff"/>
        <g id="Group_37" data-name="Group 37" transform="translate(0 8.169)">
          <path id="Path_139" data-name="Path 139" d="M150.008,174.993a.962.962,0,0,0,.757.1A.967.967,0,0,1,150.008,174.993Z" transform="translate(-149.525 -117.081)" fill="#ef5a9d"/>
          <path id="Path_140" data-name="Path 140" d="M149.647,174.621a.953.953,0,0,1-.134-.486A.954.954,0,0,0,149.647,174.621Z" transform="translate(-149.513 -117.06)" fill="#ef5a9d"/>
          <rect id="Rectangle_70" data-name="Rectangle 70" width="63.452" height="13.811" transform="translate(3.41 44.867) rotate(-45)" fill="#ef5a9d"/>
        </g>
        <rect id="Rectangle_71" data-name="Rectangle 71" width="63.452" height="6.391" transform="translate(6.034 55.659) rotate(-45)" fill="#f06ea9"/>
        <path id="Path_141" data-name="Path 141" d="M150.667,169.807l-1.116,3.948a.974.974,0,0,0,1.2,1.2l3.948-1.116Z" transform="translate(-149.513 -108.782)" fill="#ef5a9d"/>
      </g>
    </g>
  </g>
</svg>
