<svg xmlns="http://www.w3.org/2000/svg" width="73.989" height="73.489" viewBox="0 0 73.989 73.489">
  <g id="fruit" transform="translate(0 -0.5)">
    <path id="Path_185" data-name="Path 185" d="M308.773,146.51a49.461,49.461,0,0,0-3.545-18.294L304,125.149h8.354a59.639,59.639,0,0,1-.119,15.585c-.155,1.146-.346,2.267-.573,3.4l-.477,2.363a5.529,5.529,0,0,1-1.217.131A6.216,6.216,0,0,1,308.773,146.51Zm0,0" transform="translate(-258.652 -106.054)" fill="#fff"/>
    <path id="Path_188" data-name="Path 188" d="M34.5,387.671a10.7,10.7,0,0,0,1.143,2.685l2.049-1.225a8.341,8.341,0,0,1-.889-2.088Zm0,0" transform="translate(-29.357 -328.882)" fill="#fff"/>
    <path id="Path_189" data-name="Path 189" d="M74.979,419.52H72.258a21.52,21.52,0,0,1-12.739-4.142c-.155-.112-.3-.229-.45-.351l-1.534,1.828c.188.157.381.308.58.453a23.893,23.893,0,0,0,14.141,4.6h2.721a32.254,32.254,0,0,0,12.769-2.621l-.939-2.194a29.88,29.88,0,0,1-11.829,2.429Zm0,0" transform="translate(-48.953 -352.691)" fill="#fff"/>
    <path id="Path_190" data-name="Path 190" d="M421.408,282.738l-2.277.718a11.8,11.8,0,0,1,.547,3.559,18.679,18.679,0,0,1-2.66,9.6l-2.306,3.841,2.047,1.228,2.305-3.842a21.055,21.055,0,0,0,3-10.831A14.259,14.259,0,0,0,421.408,282.738Zm0,0" transform="translate(-352.849 -240.136)" fill="#fff"/>
    <path id="Path_191" data-name="Path 191" d="M428.52,250.325c.114.181.223.368.326.554l2.088-1.156c-.124-.225-.257-.448-.392-.665a7.537,7.537,0,0,0-1.9-2.061l-1.424,1.915A5.172,5.172,0,0,1,428.52,250.325Zm0,0" transform="translate(-363.494 -209.726)" fill="#fff"/>
    <path id="Path_192" data-name="Path 192" d="M71.1,36.8a12.25,12.25,0,0,0-16.05-4.392q.128-1.287.2-2.575h2.034A15.532,15.532,0,0,0,72.8,14.321V13.128h-3.58a15.52,15.52,0,0,0-14.031,8.939c-.076-1.04-.168-2.081-.3-3.12L54.755,17.9H43.585l1.883,4.705A48.3,48.3,0,0,1,48.29,32.8a12.2,12.2,0,0,0-6.344-1.774c-.062,0-.123.01-.185.012a16.066,16.066,0,0,1-3.574-10.085v-1.57a6.264,6.264,0,0,0-6.256-6.257A6.189,6.189,0,0,0,28.193,14.4a32.794,32.794,0,0,0-.83-3.655h3.665a8.364,8.364,0,0,0,8.354-8.354V1.194H33.414a8.366,8.366,0,0,0-7.679,5.072A33.346,33.346,0,0,0,22.452.5L20.51,1.887a30.678,30.678,0,0,1,5.125,11.861,6.22,6.22,0,0,0-8.929,5.636v1.57a16.084,16.084,0,0,1-3.981,10.593A17.656,17.656,0,0,0,8.394,42.288a15.417,15.417,0,0,0-2.785,1.824A27.978,27.978,0,0,1,2.387,31.028H0A30.337,30.337,0,0,0,3.842,45.847a15.389,15.389,0,0,0,2.512,22.63A28.638,28.638,0,0,0,23.3,73.989h2.721a36.956,36.956,0,0,0,12.721-2.247,8.03,8.03,0,0,0,12-.967l.573-.764.573.764A8.036,8.036,0,0,0,65.939,68.5,22.82,22.82,0,0,1,68,64.007l2.3-3.84a25.825,25.825,0,0,0,3.68-13.287A18.984,18.984,0,0,0,71.1,36.8ZM33.414,3.581h3.459a5.976,5.976,0,0,1-5.846,4.773H27.568A5.975,5.975,0,0,1,33.414,3.581Zm35.8,11.934h1.14A13.144,13.144,0,0,1,57.281,27.448h-1.14A13.144,13.144,0,0,1,69.215,15.514Zm-22.1,4.773h5.527a58.006,58.006,0,0,1-.8,17.553l-.3,1.52c-.076,0-.142.02-.22.02l-.029,0a50.53,50.53,0,0,0-3.6-17.658ZM14.523,33.12a18.466,18.466,0,0,0,4.571-12.165v-1.57A3.869,3.869,0,0,1,25.7,16.648l.424.422c.08.908.131,1.822.131,2.743v.125a4,4,0,0,1-1.322-1.384L22.8,19.628c.061.124,1.559,3.047,4.647,3.047s4.586-2.923,4.648-3.047l-2.132-1.074a4,4,0,0,1-1.322,1.384v-.125c0-.843-.034-1.682-.1-2.514l.653-.652a3.869,3.869,0,0,1,6.6,2.738v1.57a18.453,18.453,0,0,0,3.243,10.427A12.193,12.193,0,0,0,31.532,36.8a18.978,18.978,0,0,0-2.816,8.479,24.663,24.663,0,0,1-2.184-1.156l-1.462-.878a18.753,18.753,0,0,0-9.644-2.672,15.372,15.372,0,0,0-4.549.686,15.265,15.265,0,0,1,3.645-8.141ZM23.3,71.6A26.267,26.267,0,0,1,7.757,66.548,13.007,13.007,0,0,1,5.156,48a30.794,30.794,0,0,0,3.4,4.2,3.124,3.124,0,0,1-1.218.251H5.749v2.387H7.334a5.548,5.548,0,0,0,3.9-1.616,5.48,5.48,0,0,0,1.616-3.9V47.735H10.463v1.586a3.112,3.112,0,0,1-.229,1.172,28.292,28.292,0,0,1-3.391-4.285,12.975,12.975,0,0,1,8.583-3.247,16.36,16.36,0,0,1,8.416,2.331l1.462.877A27.91,27.91,0,0,0,44.13,49.744l4.649-.774a3.069,3.069,0,0,1,.5-.041h.216a3.017,3.017,0,0,1,2.909,3.81l-.593,2.176A21.039,21.039,0,0,1,39.735,68.79,34.627,34.627,0,0,1,26.026,71.6ZM68.262,58.939l-2.3,3.84a24.984,24.984,0,0,0-2.282,4.961,5.649,5.649,0,0,1-9.878,1.6l-2.482-3.309-2.482,3.309a5.675,5.675,0,0,1-4.519,2.26,5.616,5.616,0,0,1-3.017-.908A23.4,23.4,0,0,0,54.112,55.541l.593-2.177a5.4,5.4,0,0,0-5.212-6.822h-.216a5.4,5.4,0,0,0-.888.074l-4.651.774a25.5,25.5,0,0,1-12.686-1.156,16.6,16.6,0,0,1,2.505-8.168A9.881,9.881,0,0,1,48.72,36.108c.08.864.13,1.732.163,2.6a4.722,4.722,0,0,1-1.35-1.185l-1.986,1.323a7.156,7.156,0,0,0,11.533,0L55.1,37.519a4.424,4.424,0,0,1-.95.931l.027-.139c.19-.947.348-1.9.493-2.85a9.881,9.881,0,0,1,14.4,2.606A16.6,16.6,0,0,1,71.6,46.879a23.447,23.447,0,0,1-3.34,12.06Zm0,0" fill="#fff"/>
  </g>
</svg>
