<svg id="question" xmlns="http://www.w3.org/2000/svg" width="205.062" height="205.062" viewBox="0 0 205.062 205.062">
  <path id="Path_60" data-name="Path 60" d="M205.062,102.531A102.531,102.531,0,1,1,102.531,0,102.53,102.53,0,0,1,205.062,102.531Zm0,0" fill="#3fb777"/>
  <path id="Path_61" data-name="Path 61" d="M230.907,392.549v11.713a101.7,101.7,0,0,1-33.6,11.9q-3.874.638-7.835.992-2.466.218-4.972.313c-1.36.059-2.728.084-4.1.084q-4.595,0-9.082-.4a102.12,102.12,0,0,1-21.97-4.39c-.252-.08-.507-.164-.757-.247a101.834,101.834,0,0,1-18.7-8.253V392.549a38.111,38.111,0,0,1,28.228-36.806c.595-.16,1.192-.307,1.8-.436a38.258,38.258,0,0,1,4.959-.732c1.029-.083,2.067-.125,3.118-.125H192.8a38.082,38.082,0,0,1,8.082.857c.15.03.3.063.447.1.44.1.879.21,1.309.327a.345.345,0,0,1,.034.008,38.134,38.134,0,0,1,28.234,36.811Zm0,0" transform="translate(-77.863 -212.488)" fill="#2a2f4f"/>
  <path id="Path_62" data-name="Path 62" d="M258.9,392.549v11.713a101.7,101.7,0,0,1-33.6,11.9q-3.874.638-7.835.992-2.466.218-4.972.313c-1.36.059-2.728.084-4.1.084q-4.595,0-9.082-.4a102.12,102.12,0,0,1-21.97-4.39c-.252-.08-.507-.164-.757-.247V392.549a38.11,38.11,0,0,1,28.227-36.806c.595-.16,1.192-.307,1.8-.436a38.258,38.258,0,0,1,4.959-.732q1.544-.124,3.118-.125h6.109a38.082,38.082,0,0,1,8.082.857c.15.03.3.063.447.1.44.1.879.21,1.309.327a.347.347,0,0,1,.034.008A38.134,38.134,0,0,1,258.9,392.549Zm0,0" transform="translate(-105.859 -212.488)" fill="#3d4159"/>
  <path id="Path_63" data-name="Path 63" d="M244.875,356.59l-.092.432-13.2,61.413q-4.482.4-9.072.4t-9.082-.4l-13.2-61.41-.092-.435Zm0,0" transform="translate(-119.975 -213.772)" fill="#f2f0ec"/>
  <path id="Path_64" data-name="Path 64" d="M222.5,361.936l-17.153,9.532L200.129,347.2l10.659-6.278" transform="translate(-119.975 -204.377)" fill="#d8d5d0"/>
  <path id="Path_65" data-name="Path 65" d="M255.988,361.936l17.155,9.532L278.36,347.2,267.7,340.918" transform="translate(-153.462 -204.377)" fill="#d8d5d0"/>
  <path id="Path_66" data-name="Path 66" d="M128.109,168.828V111.365a51.222,51.222,0,1,1,102.443,0v57.462" transform="translate(-76.8 -36.054)" fill="#f74f4f"/>
  <path id="Path_67" data-name="Path 67" d="M149.18,113.616c0,20.326,11.9,43.84,18.439,55.22H128.11V111.372a51.192,51.192,0,0,1,50.846-51.22c-15.748.394-29.775,25.658-29.775,53.463Zm0,0" transform="translate(-76.8 -36.061)" fill="#dd3033"/>
  <path id="Path_68" data-name="Path 68" d="M249.248,317.8v16.684a13.595,13.595,0,0,1-27.189,0V317.8Zm0,0" transform="translate(-133.121 -190.518)" fill="#eab599"/>
  <path id="Path_69" data-name="Path 69" d="M261.451,356.816v1.058a13.591,13.591,0,0,1-9.575,12.984,13.587,13.587,0,0,1-9.462-11.214q1.361.085,2.738.083a46.987,46.987,0,0,0,16.3-2.91Zm0,0" transform="translate(-145.324 -213.907)" fill="#f6caae"/>
  <path id="Path_70" data-name="Path 70" d="M125.046,230.61a12.642,12.642,0,0,1-10.617,12.48,12.511,12.511,0,0,1-2.026.163,12.642,12.642,0,0,1,0-25.284,12.511,12.511,0,0,1,2.026.163,12.642,12.642,0,0,1,10.617,12.478Zm0,0" transform="translate(-59.806 -130.67)" fill="#f6caae"/>
  <path id="Path_71" data-name="Path 71" d="M144.487,230.853a12.642,12.642,0,0,1-10.617,12.48,47.223,47.223,0,0,1,0-24.958A12.642,12.642,0,0,1,144.487,230.853Zm0,0" transform="translate(-79.248 -130.913)" fill="#eab599"/>
  <path id="Path_72" data-name="Path 72" d="M129.083,242.768a4.518,4.518,0,1,1-4.518-4.518A4.519,4.519,0,0,1,129.083,242.768Zm0,0" transform="translate(-71.967 -142.828)" fill="#eab599"/>
  <path id="Path_73" data-name="Path 73" d="M218.055,166.274v43.457a46.855,46.855,0,0,1-24.911,12.4l-.232.038a46.207,46.207,0,0,1-7.319.569A47.036,47.036,0,0,1,138.558,175.7v-17.91a47.391,47.391,0,0,1,.482-6.755,29.806,29.806,0,0,0,37.459-2.409,26.627,26.627,0,0,0,7.068-11.045,31.042,31.042,0,0,0,9.709,19.376,34.7,34.7,0,0,0,24.778,9.32Zm0,0" transform="translate(-83.064 -82.477)" fill="#eab599"/>
  <path id="Path_74" data-name="Path 74" d="M239.979,166.277v43.455a46.865,46.865,0,0,1-24.913,12.4c-.075.013-.155.025-.23.039A47.041,47.041,0,0,1,175.129,175.7V157.79c0-.477.008-.95.025-1.424a29.47,29.47,0,0,0,23.267-7.741,26.617,26.617,0,0,0,7.068-11.044,31.054,31.054,0,0,0,9.709,19.376,33.636,33.636,0,0,0,6.566,4.837,34.574,34.574,0,0,0,3.7,1.8h0a35.465,35.465,0,0,0,13.827,2.686c.23,0,.457,0,.687-.008Zm0,0" transform="translate(-104.988 -82.478)" fill="#f6caae"/>
  <path id="Path_75" data-name="Path 75" d="M228.445,218.477h34.549v16.606H228.445Zm0,0" transform="translate(-136.95 -130.975)" fill="#eab599"/>
  <path id="Path_76" data-name="Path 76" d="M318.4,254.824a5.859,5.859,0,1,1-5.859-5.859A5.86,5.86,0,0,1,318.4,254.824Zm0,0" transform="translate(-183.851 -149.252)" fill="#eab599"/>
  <path id="Path_77" data-name="Path 77" d="M187.784,254.824a5.859,5.859,0,1,1-5.859-5.859A5.86,5.86,0,0,1,187.784,254.824Zm0,0" transform="translate(-105.55 -149.252)" fill="#eab599"/>
  <path id="Path_78" data-name="Path 78" d="M176.555,215.525v0a13.216,13.216,0,0,0,13.065,13q.469,0,.942,0a13.2,13.2,0,0,0,13-13.207v-3.975l-.139-5.194a1.7,1.7,0,0,0-1.147-1.558,37.138,37.138,0,0,0-24.581.052,1.7,1.7,0,0,0-1.139,1.6v9.284Zm0,0" transform="translate(-105.843 -121.41)" fill="#dde8ed"/>
  <path id="Path_79" data-name="Path 79" d="M296.038,211.351v3.977a13.2,13.2,0,0,1-13,13.211c-.314,0-.627,0-.942,0a13.212,13.212,0,0,1-13.062-13v-9.287a1.7,1.7,0,0,1,1.139-1.6,37.188,37.188,0,0,1,11.584-2.109h0a35.465,35.465,0,0,0,13.827,2.686,1.686,1.686,0,0,1,.314.929Zm0,0" transform="translate(-161.281 -121.422)" fill="#dde8ed"/>
  <path id="Path_80" data-name="Path 80" d="M295.683,211.148a7.812,7.812,0,0,0-15.625,0" transform="translate(-167.892 -121.898)" fill="#bfd5de"/>
  <path id="Path_81" data-name="Path 81" d="M208.566,211.148a7.812,7.812,0,0,0-15.625,0" transform="translate(-115.666 -121.898)" fill="#bfd5de"/>
  <path id="Path_82" data-name="Path 82" d="M209.8,223.16a5.336,5.336,0,1,1-5.335-5.335A5.336,5.336,0,0,1,209.8,223.16Zm0,0" transform="translate(-119.374 -130.584)" fill="#3d4159"/>
  <path id="Path_83" data-name="Path 83" d="M296.914,223.16a5.336,5.336,0,1,1-5.335-5.335A5.336,5.336,0,0,1,296.914,223.16Zm0,0" transform="translate(-171.599 -130.584)" fill="#3d4159"/>
  <path id="Path_84" data-name="Path 84" d="M237.218,290.739a23.781,23.781,0,0,1-11.468-2.96,2.092,2.092,0,1,1,2.015-3.667,19.527,19.527,0,0,0,18.9,0,2.092,2.092,0,1,1,2.015,3.667A23.775,23.775,0,0,1,237.218,290.739Zm0,0" transform="translate(-134.684 -170.166)" fill="#eab599"/>
  <path id="Path_85" data-name="Path 85" d="M216.21,225.372a2.287,2.287,0,1,1-2.287-2.286A2.288,2.288,0,0,1,216.21,225.372Zm0,0" transform="translate(-126.874 -133.738)" fill="#fff"/>
  <path id="Path_86" data-name="Path 86" d="M250.955,260.412H240.283a2.3,2.3,0,1,1,0-4.6h10.671a2.3,2.3,0,1,1,0,4.6Zm0,0" transform="translate(-142.667 -153.355)" fill="#eab599"/>
  <path id="Path_87" data-name="Path 87" d="M303.979,225.372a2.287,2.287,0,1,1-2.286-2.286A2.287,2.287,0,0,1,303.979,225.372Zm0,0" transform="translate(-179.491 -133.738)" fill="#fff"/>
  <g id="Group_23" data-name="Group 23" transform="translate(55.493 79.029)">
    <path id="Path_88" data-name="Path 88" d="M176.232,212.617h-4.185v-9.493a3.8,3.8,0,0,1,2.534-3.573,39.372,39.372,0,0,1,25.967-.053,3.813,3.813,0,0,1,2.55,3.478l.139,5.249v4.185h-4.185v-4.157l-.131-4.889a35.175,35.175,0,0,0-22.69.044Zm0,0" transform="translate(-158.633 -197.321)" fill="#f2f0ec"/>
    <path id="Path_89" data-name="Path 89" d="M293.568,202.521v10.315h-2.043V208.68l-.13-4.887a35.165,35.165,0,0,0-22.69.042v9.21H264.52v-9.492a3.8,3.8,0,0,1,2.536-3.573,39.257,39.257,0,0,1,8.3-1.942,35.246,35.246,0,0,0,18.214,4.482Zm0,0" transform="translate(-214.069 -197.751)" fill="#f2f0ec"/>
    <path id="Path_90" data-name="Path 90" d="M244.355,211.574h10.169v4.185H244.355Zm0,0" transform="translate(-201.981 -205.866)" fill="#f2f0ec"/>
    <path id="Path_91" data-name="Path 91" d="M154.717,206.1l-1.319,3.972-2.871-.954-11.973-3.7v-4.4l12.605,3.9Zm0,0" transform="translate(-138.555 -199.531)" fill="#f2f0ec"/>
  </g>
  <path id="Path_92" data-name="Path 92" d="M140.007,289.621,135.8,295.1l-11.5,3.066-6.788,1.809-5.3-4.884c-.147-.138-.3-.272-.44-.415-14.932-13.935-21.987-24.891-28.491-44.255-.067-.188-.13-.38-.192-.574L80.836,243l4.462-5.432,7.549-9.195,6.716-1.569,1.044,2.649,2.933,7.463,4.248,10.8-5.529,5.047-3.733,3.407c1.712,5.487,10.032,18.409,14.317,22.242l4.645-1.988,6.881-2.954,8.081,8.348,5.579,5.759,0,0Zm0,0" transform="translate(-48.46 -135.967)" fill="#66baed"/>
  <path id="Path_93" data-name="Path 93" d="M179.227,343.336l-6.884,2.952,18.312,18.664,4.208-5.471Zm0,0" transform="translate(-103.318 -205.826)" fill="#f2f0ec"/>
  <path id="Path_94" data-name="Path 94" d="M125.762,247.719l-5.538,5.042-9.407-24.4,6.723-1.566Zm0,0" transform="translate(-66.433 -135.964)" fill="#f2f0ec"/>
  <path id="Path_95" data-name="Path 95" d="M124.3,314.273l-6.788,1.809-5.3-4.884c-.147-.138-.3-.272-.44-.415-14.932-13.935-21.987-24.891-28.491-44.255-.067-.188-.13-.38-.192-.574l-2.256-6.842L85.3,253.68s1.422,37.071,39,60.59c0,0,0,0,0,0Zm0,0" transform="translate(-48.46 -152.078)" fill="#2ba1cf"/>
  <path id="Path_96" data-name="Path 96" d="M126.1,321.937l-6.363,6.363a8.694,8.694,0,0,1-10.244,1.514,8.688,8.688,0,0,1-2.037-13.794l6.363-6.363a8.684,8.684,0,1,1,12.281,12.28Zm0,0" transform="translate(-62.892 -184.111)" fill="#eab599"/>
  <path id="Path_97" data-name="Path 97" d="M131.411,327.251l-6.363,6.363a8.694,8.694,0,0,1-10.244,1.514,8.686,8.686,0,0,1,1.514-10.244l6.363-6.361a8.684,8.684,0,0,1,10.244-1.516,8.685,8.685,0,0,1-1.514,10.244Zm0,0" transform="translate(-68.206 -189.425)" fill="#f6caae"/>
  <path id="Path_98" data-name="Path 98" d="M106.707,405.137a102.761,102.761,0,0,1-13.8-8.7q-3.4-2.542-6.576-5.355a99.105,99.105,0,0,1,6.357-37.862l5.516,2.084q5.951,2.248,11.906,4.5a80.487,80.487,0,0,0-3.406,45.339Zm0,0" transform="translate(-51.732 -211.748)" fill="#2a2f4f"/>
  <path id="Path_99" data-name="Path 99" d="M116.1,408.256a102.761,102.761,0,0,1-13.8-8.7,99.094,99.094,0,0,1,5.3-41.134q5.951,2.248,11.906,4.5a80.487,80.487,0,0,0-3.406,45.339Zm0,0" transform="translate(-61.128 -214.867)" fill="#3d4159"/>
  <path id="Path_100" data-name="Path 100" d="M294.813,17h76.313V74.364H294.813Zm0,0" transform="translate(-176.737 -10.191)" fill="#f2f0ec"/>
  <path id="Path_101" data-name="Path 101" d="M379.343,149.739,371.148,169.2,407,148.714Zm0,0" transform="translate(-222.499 -89.153)" fill="#f2f0ec"/>
  <path id="Path_102" data-name="Path 102" d="M380.319,115.652a4.619,4.619,0,1,0,4.595,4.643,4.626,4.626,0,0,0-4.595-4.643Zm0,0" transform="translate(-225.242 -69.332)" fill="#3d4159"/>
  <path id="Path_103" data-name="Path 103" d="M373.355,38.5c-4.678,0-9.891,2.6-9.891,6.328a3.665,3.665,0,0,0,3.633,3.681,4.019,4.019,0,0,0,2.847-1.4,3.79,3.79,0,0,1,3.218-1.248c3.971,0,3.971,2.628,3.971,3.492,0,2.741-1.727,4.263-3.556,5.876-.466.41-.906.8-1.317,1.211a5.593,5.593,0,0,1-.487.415c-1.685,1.336-2.437,2.678-2.437,7.106,0,2.425,1.358,3.874,3.634,3.874a3.411,3.411,0,0,0,3.728-3.392,13.621,13.621,0,0,1,.1-2.281,6.275,6.275,0,0,1,.751-.809l.369-.366.077-.08c.268-.3.66-.66,1.114-1.081,2.125-1.968,5.679-5.263,5.679-10.811,0-6.289-4.593-10.515-11.429-10.515Zm0,0" transform="translate(-217.893 -23.083)" fill="#3d4159"/>
</svg>
