<svg xmlns="http://www.w3.org/2000/svg" width="203.825" height="205.95" viewBox="0 0 203.825 205.95">
  <g id="rate" transform="translate(-1.366 -0.025)">
    <path id="Path_43" data-name="Path 43" d="M215.207,174.439a2.092,2.092,0,0,0-3.058,0L172.239,214.35a2.092,2.092,0,0,0,0,3.058l7.081,7.081,42.968-42.968Z" transform="translate(-33.25 -33.942)" fill="#e9e9ea"/>
    <path id="Path_44" data-name="Path 44" d="M236.786,188.459l-6.437-6.437a4.032,4.032,0,0,0-5.633,0l-44.095,44.014a4.032,4.032,0,0,0,0,5.633l6.437,6.437a4.032,4.032,0,0,0,5.633,0l44.095-44.095a3.8,3.8,0,0,0,0-5.552Z" transform="translate(-34.794 -35.329)" fill="#55acd5"/>
    <path id="Path_45" data-name="Path 45" d="M180.263,152.253c-4.908-4.908-6.357-9.414-8.288-12.794a27.56,27.56,0,0,0-5.311-7.242l-24.3-24.3a6.654,6.654,0,0,0-9.495,0,6.726,6.726,0,0,0,0,9.495,6.654,6.654,0,0,0-9.495,0,6.726,6.726,0,0,0,0,9.495,6.654,6.654,0,0,0-9.495,0,6.726,6.726,0,0,0,0,9.495L94.326,116.848a6.714,6.714,0,0,0-9.495,9.495L115.81,157.4a7.51,7.51,0,0,0-10.621,10.621h0l6.6,6.6a34.806,34.806,0,0,0,18.185,9.575c5.633,1.529,12.392.4,21.162,8.529l6.115,5.954L191.93,164Z" transform="translate(-15.928 -20.688)" fill="#f9d0b4"/>
    <path id="Path_46" data-name="Path 46" d="M130.531,60.885a1.749,1.749,0,0,0,0-2.414,1.835,1.835,0,0,0-.966-.483L88.528,52.033a1.679,1.679,0,0,1-1.287-.885L68.895,13.974a1.637,1.637,0,0,0-2.253-.724,1.579,1.579,0,0,0-.724.724L47.571,51.148a1.679,1.679,0,0,1-1.287.885L5.247,57.988A1.782,1.782,0,0,0,3.8,59.919a1.835,1.835,0,0,0,.483.966L33.973,89.852a1.7,1.7,0,0,1,.483,1.448l-7,40.876a1.706,1.706,0,0,0,1.368,1.931,1.534,1.534,0,0,0,1.046-.161l36.692-19.312a1.7,1.7,0,0,1,1.529,0L84.022,123,69.216,108.2A6.714,6.714,0,0,1,78.711,98.7l19.553,19.553a6.654,6.654,0,0,1,0-9.495,6.882,6.882,0,0,1,4.587-2.012L100.2,91.22a1.552,1.552,0,0,1,.483-1.448Z" transform="translate(-0.474 -2.543)" fill="#ffcd29"/>
    <path id="Path_47" data-name="Path 47" d="M76.932,166.46H75.483v-1.448a2.012,2.012,0,1,0-4.023,0v1.448H70.012a2.012,2.012,0,0,0,0,4.023H71.46v1.448a2.012,2.012,0,0,0,4.023,0v-1.448h1.448a2.012,2.012,0,0,0,0-4.023Z" transform="translate(-13.017 -31.837)" fill="#ffcd29"/>
    <path id="Path_48" data-name="Path 48" d="M134.762,1.614c0-.161-.08-.241-.08-.4-.08-.161-.08-.241-.161-.322s-.161-.241-.241-.322a2.1,2.1,0,0,0-2.816,0,1.111,1.111,0,0,0-.241.322.61.61,0,0,0-.161.322.725.725,0,0,0-.08.4.725.725,0,0,1-.08.4.725.725,0,0,0,.08.4c0,.161.08.241.08.4.08.08.08.241.161.322s.161.241.241.322a1.945,1.945,0,0,0,2.816,0h0a1.111,1.111,0,0,0,.241-.322.61.61,0,0,0,.161-.322.6.6,0,0,0,.08-.4c0-.161.08-.241.08-.4A3.485,3.485,0,0,0,134.762,1.614Z" transform="translate(-25.305 0)" fill="#6dcc6d"/>
    <path id="Path_49" data-name="Path 49" d="M83.148,211.214a2.857,2.857,0,0,0-.322-.724c-.08-.08-.161-.241-.241-.322a2.1,2.1,0,0,0-2.816,0,1.111,1.111,0,0,0-.241.322.61.61,0,0,0-.161.322.725.725,0,0,0-.08.4,1.371,1.371,0,0,0,0,.8c0,.161.08.241.08.4.08.08.08.241.161.322s.161.241.241.322a1.945,1.945,0,0,0,2.816,0h0a1.111,1.111,0,0,0,.241-.322.61.61,0,0,0,.161-.322.6.6,0,0,0,.08-.4A.974.974,0,0,0,83.148,211.214Z" transform="translate(-15.21 -40.945)" fill="#ea4647"/>
    <path id="Path_50" data-name="Path 50" d="M120.269,14.9a8.163,8.163,0,0,1-6.437-6.437.173.173,0,0,0-.161-.161c-.08,0-.08.08-.161.161a8.163,8.163,0,0,1-6.437,6.437c-.08,0-.161.08-.08.161a.079.079,0,0,0,.08.08,8.163,8.163,0,0,1,6.437,6.437.173.173,0,0,0,.161.161c.08,0,.08-.08.161-.161a8.163,8.163,0,0,1,6.437-6.437c.08,0,.161-.08.08-.161A.079.079,0,0,0,120.269,14.9Z" transform="translate(-20.628 -1.617)" fill="#ea4647"/>
    <path id="Path_51" data-name="Path 51" d="M52.757,184.9a8.163,8.163,0,0,1-6.437-6.437.173.173,0,0,0-.161-.161c-.08,0-.08.08-.161.161a8.163,8.163,0,0,1-6.437,6.437.173.173,0,0,0-.161.161c0,.08.08.08.161.161A8.163,8.163,0,0,1,46,191.657a.173.173,0,0,0,.161.161c.08,0,.08-.08.161-.161a8.163,8.163,0,0,1,6.437-6.437.161.161,0,1,0,0-.322Z" transform="translate(-7.43 -34.826)" fill="#55acd5"/>
    <path id="Path_52" data-name="Path 52" d="M223.172,179.588l-7.081-7.081a4.177,4.177,0,0,0-5.874,0h0l-39.911,39.911a4.177,4.177,0,0,0,0,5.874h0l7.081,7.081a1.944,1.944,0,0,0,2.816,0L223.173,182.4a1.944,1.944,0,0,0,0-2.816Zm-44.417,41.6-5.633-5.633a.151.151,0,0,1,0-.241L213.034,175.4a.151.151,0,0,1,.241,0l5.633,5.633Z" transform="translate(-32.767 -33.459)" fill="#231f20"/>
    <path id="Path_53" data-name="Path 53" d="M129.72,173l-5.15-5.15a1.991,1.991,0,0,0-2.816,2.816l5.15,5.15A1.991,1.991,0,1,0,129.72,173Z" transform="translate(-23.4 -32.667)" fill="#231f20"/>
    <path id="Path_54" data-name="Path 54" d="M128.083,147.667l-5.713-5.713a1.991,1.991,0,1,0-2.816,2.816l5.713,5.713a1.944,1.944,0,0,0,2.816-.08,1.994,1.994,0,0,0,0-2.736Z" transform="translate(-22.97 -27.608)" fill="#231f20"/>
    <path id="Path_55" data-name="Path 55" d="M139.883,135.867l-5.713-5.713a1.991,1.991,0,0,0-2.816,2.816l5.713,5.713a1.991,1.991,0,1,0,2.816-2.816Z" transform="translate(-25.275 -25.303)" fill="#231f20"/>
    <path id="Path_56" data-name="Path 56" d="M151.7,124.076l-5.713-5.713a1.944,1.944,0,0,0-2.816.08,2.1,2.1,0,0,0,0,2.816l5.713,5.713a2.021,2.021,0,0,0,2.816-2.9Z" transform="translate(-27.595 -23.007)" fill="#231f20"/>
    <path id="Path_57" data-name="Path 57" d="M237.756,186.512l-6.437-6.437a5.973,5.973,0,0,0-8.449,0L178.775,224.17a5.973,5.973,0,0,0,0,8.449h0l6.437,6.437a5.973,5.973,0,0,0,8.449,0l44.095-44.095a5.974,5.974,0,0,0,0-8.449Zm-2.816,5.633L190.845,236.24a1.945,1.945,0,0,1-2.816,0l-6.437-6.437a1.945,1.945,0,0,1,0-2.816h0l44.095-44.095a1.945,1.945,0,0,1,2.816,0l6.437,6.437a2.1,2.1,0,0,1,0,2.816Z" transform="translate(-34.315 -34.831)" fill="#231f20"/>
    <path id="Path_58" data-name="Path 58" d="M192.975,162.069l-11.748-11.748a32.948,32.948,0,0,1-6.518-9.656c-.483-.966-.885-1.851-1.368-2.655a31.207,31.207,0,0,0-5.633-7.725l-24.3-24.3a8.771,8.771,0,0,0-14.966,6.2v.8a8.642,8.642,0,0,0-9.495,7.886v1.609a8.647,8.647,0,0,0-9.334,6.84l-14.4-14.4A8.705,8.705,0,0,0,82.9,127.227l25.507,25.588a9.535,9.535,0,0,0-7.805,10.943,9.938,9.938,0,0,0,2.655,5.15l6.6,6.6a36.012,36.012,0,0,0,19.231,10.058,41.163,41.163,0,0,0,4.345.8c4.506.724,9.656,1.448,15.852,7.161l6.115,5.954a2.016,2.016,0,0,0,2.816,0l34.68-34.68a1.915,1.915,0,0,0,.08-2.736ZM156.847,195.3l-4.747-4.587c-7.161-6.6-13.2-7.483-18.024-8.207a35.2,35.2,0,0,1-4.023-.724h-.161a31.5,31.5,0,0,1-17.139-9.012l-6.6-6.6a5.462,5.462,0,1,1,7.725-7.725,1.991,1.991,0,0,0,2.816-2.816l-30.979-31.06h0a4.722,4.722,0,0,1,6.679-6.679l19.553,19.553a1.991,1.991,0,0,0,2.816-2.816h0a4.722,4.722,0,1,1,6.679-6.679h0a1.991,1.991,0,0,0,2.816-2.816,4.722,4.722,0,0,1,6.679-6.679,1.992,1.992,0,0,0,2.9-2.736l-.08-.08a4.722,4.722,0,0,1,6.679-6.679l24.3,24.3a26.908,26.908,0,0,1,4.908,6.759.079.079,0,0,0,.08.08c.4.724.8,1.609,1.287,2.494a37.233,37.233,0,0,0,7.322,10.7l10.3,10.3Z" transform="translate(-15.444 -20.204)" fill="#231f20"/>
    <path id="Path_59" data-name="Path 59" d="M132.39,58.061a3.544,3.544,0,0,0-2.977-2.494L88.537,49.612,70.271,12.6a3.663,3.663,0,0,0-4.908-1.69,3.812,3.812,0,0,0-1.69,1.69L45.327,49.612l-40.8,5.954a3.766,3.766,0,0,0-3.138,4.184,3.48,3.48,0,0,0,1.046,2.092L31.97,90.65l-7,40.715a3.67,3.67,0,0,0,2.977,4.265,3.393,3.393,0,0,0,2.333-.4L66.811,116l15.771,8.288a2.085,2.085,0,0,0,2.736-.8A2.053,2.053,0,0,0,85,121.146l-8.449-8.529-6.276-6.276h0a4.722,4.722,0,1,1,6.679-6.679L96.5,119.215a1.991,1.991,0,0,0,2.816-2.816,4.711,4.711,0,0,1,0-6.679,4.511,4.511,0,0,1,3.219-1.368,1.946,1.946,0,0,0,1.931-2.092v-.241L101.814,90.65l29.611-28.806A3.7,3.7,0,0,0,132.39,58.061ZM98.917,87.914a3.629,3.629,0,0,0-1.046,3.3l2.333,13.518a8.718,8.718,0,0,0-6.035,6.518l-14.4-14.4a8.705,8.705,0,0,0-12.311,12.311h0l5.472,5.472-4.265-2.253a3.753,3.753,0,0,0-3.46,0l-36.129,18.99,6.92-40.232a3.629,3.629,0,0,0-1.046-3.3L5.738,59.429l40.393-5.874a3.853,3.853,0,0,0,2.816-2.012L66.972,14.932,85,51.544a3.66,3.66,0,0,0,2.816,2.012l40.393,5.874Z" transform="translate(0 -2.053)" fill="#231f20"/>
  </g>
</svg>
