<svg id="seo" xmlns="http://www.w3.org/2000/svg" width="206" height="206" viewBox="0 0 206 206">
  <circle id="Ellipse_11" data-name="Ellipse 11" cx="98.574" cy="98.574" r="98.574" transform="translate(8.852 8.852)" fill="#f24976"/>
  <path id="Path_18" data-name="Path 18" d="M97.23,129.361a40.363,40.363,0,0,1,49.034-6.213V53.763H0V181.27a4.035,4.035,0,0,0,4.023,4.023H96.186A40.367,40.367,0,0,1,97.23,129.361Z" transform="translate(0 -32.132)" fill="#eef6ff"/>
  <path id="Path_19" data-name="Path 19" d="M9.125,181.27V53.763H0V181.27a4.035,4.035,0,0,0,4.023,4.023h9.125A4.035,4.035,0,0,1,9.125,181.27Z" transform="translate(0 -32.132)" fill="#c3ddf4"/>
  <path id="Path_20" data-name="Path 20" d="M143.965,0H2.3A2.306,2.306,0,0,0,0,2.3V22.772H146.264V2.3A2.306,2.306,0,0,0,143.965,0Z" fill="#293d7c"/>
  <path id="Path_21" data-name="Path 21" d="M11.425,0H2.3A2.306,2.306,0,0,0,0,2.3V22.772H9.125V2.3A2.306,2.306,0,0,1,11.425,0Z" fill="#1a2b63"/>
  <path id="Path_22" data-name="Path 22" d="M85.678,127.863a2.018,2.018,0,0,1-2.012,2.012H38.828a2.018,2.018,0,0,1-2.012-2.012V95.708A2.018,2.018,0,0,1,38.828,93.7H83.666a2.018,2.018,0,0,1,2.012,2.012v32.155h0Z" transform="translate(-22.003 -55.998)" fill="#69cdff"/>
  <path id="Path_23" data-name="Path 23" d="M45.941,127.863V95.708A2.018,2.018,0,0,1,47.953,93.7H38.828a2.018,2.018,0,0,0-2.012,2.012v32.155a2.018,2.018,0,0,0,2.012,2.012h9.125A2.018,2.018,0,0,1,45.941,127.863Z" transform="translate(-22.003 -55.998)" fill="#52bbef"/>
  <path id="Path_24" data-name="Path 24" d="M109.372,281.788H38.828a2.018,2.018,0,0,0-2.012,2.012v19.236a2.018,2.018,0,0,0,2.012,2.012h70.107A40.6,40.6,0,0,1,109.372,281.788Z" transform="translate(-22.003 -168.412)" fill="#ff9518"/>
  <path id="Path_25" data-name="Path 25" d="M45.941,303.035V283.8a2.018,2.018,0,0,1,2.012-2.012H38.828a2.018,2.018,0,0,0-2.012,2.012v19.236a2.018,2.018,0,0,0,2.012,2.012h9.125A2.018,2.018,0,0,1,45.941,303.035Z" transform="translate(-22.003 -168.412)" fill="#ef8318"/>
  <path id="Path_26" data-name="Path 26" d="M195.455,281.788h-14.6v23.259h14.167A40.6,40.6,0,0,1,195.455,281.788Z" transform="translate(-108.086 -168.412)" fill="#ffd00d"/>
  <g id="Group_21" data-name="Group 21" transform="translate(11.795 34.68)">
    <path id="Path_27" data-name="Path 27" d="M243.005,92.231H193.683a3.018,3.018,0,0,1,0-6.035h49.323a3.018,3.018,0,0,1,0,6.035Z" transform="translate(-125.747 -86.196)" fill="#91e0e8"/>
    <path id="Path_28" data-name="Path 28" d="M243.005,122.2H193.683a3.018,3.018,0,0,1,0-6.035h49.323a3.018,3.018,0,0,1,0,6.035Z" transform="translate(-125.747 -104.11)" fill="#91e0e8"/>
    <path id="Path_29" data-name="Path 29" d="M243.005,152.177H193.683a3.018,3.018,0,0,1,0-6.035h49.323a3.018,3.018,0,0,1,0,6.035Z" transform="translate(-125.747 -122.023)" fill="#91e0e8"/>
    <path id="Path_30" data-name="Path 30" d="M243.005,182.15H193.683a3.018,3.018,0,0,1,0-6.035h49.323a3.018,3.018,0,0,1,0,6.035Z" transform="translate(-125.747 -139.937)" fill="#91e0e8"/>
    <path id="Path_31" data-name="Path 31" d="M138.006,213.148H32.334a3.018,3.018,0,1,0,0,6.035h89.149A39.888,39.888,0,0,1,138.006,213.148Z" transform="translate(-29.316 -162.07)" fill="#91e0e8"/>
    <path id="Path_32" data-name="Path 32" d="M113.967,243.662H32.334a3.018,3.018,0,1,0,0,6.035h76.923A40.239,40.239,0,0,1,113.967,243.662Z" transform="translate(-29.316 -180.307)" fill="#91e0e8"/>
  </g>
  <path id="Path_33" data-name="Path 33" d="M30.413,25.645a3.016,3.016,0,1,1,2.132-.882A3.051,3.051,0,0,1,30.413,25.645Z" transform="translate(-16.373 -11.72)" fill="#e26693"/>
  <path id="Path_34" data-name="Path 34" d="M55.008,25.645a3.016,3.016,0,1,1,2.136-.886A3.028,3.028,0,0,1,55.008,25.645Z" transform="translate(-31.072 -11.72)" fill="#ffaf10"/>
  <path id="Path_35" data-name="Path 35" d="M79.613,25.645a3.016,3.016,0,1,1,2.132-.882A3.033,3.033,0,0,1,79.613,25.645Z" transform="translate(-45.777 -11.72)" fill="#37c47a"/>
  <path id="Path_36" data-name="Path 36" d="M397.483,389.207l-8.27,8.271,16.27,16.27a99.22,99.22,0,0,0,8.271-8.271Z" transform="translate(-232.616 -232.612)" fill="#445ea0"/>
  <path id="Path_37" data-name="Path 37" d="M383.2,366.631l-6.854-6.854a40.552,40.552,0,0,1-16.527,16.553l6.841,6.841a2.017,2.017,0,0,0,2.845,0l13.7-13.7A2.018,2.018,0,0,0,383.2,366.631Z" transform="translate(-215.046 -215.023)" fill="#293d7c"/>
  <path id="Path_38" data-name="Path 38" d="M371.349,397.564l-5.85-5.85a40.187,40.187,0,0,1-5.685,3.7l6.841,6.841a2.017,2.017,0,0,0,2.845,0l4.694-4.694A2.017,2.017,0,0,1,371.349,397.564Z" transform="translate(-215.045 -234.11)" fill="#1a2b63"/>
  <path id="Path_39" data-name="Path 39" d="M280.513,222.349a41.125,41.125,0,1,1-58.159,0A41.125,41.125,0,0,1,280.513,222.349Z" transform="translate(-125.692 -125.689)" fill="#445ea0"/>
  <path id="Path_40" data-name="Path 40" d="M290.079,290.074a28.835,28.835,0,1,1,0-40.778A28.834,28.834,0,0,1,290.079,290.074Z" transform="translate(-143.949 -143.946)" fill="#69cdff"/>
  <path id="Path_41" data-name="Path 41" d="M290.079,298.468a29.025,29.025,0,0,0,2.793-3.241,28.836,28.836,0,0,1-40.331-40.33,28.835,28.835,0,1,0,37.537,43.571Z" transform="translate(-143.949 -152.341)" fill="#52bbef"/>
  <path id="Path_42" data-name="Path 42" d="M213.24,0H115.912V22.772H215.54V2.3A2.306,2.306,0,0,0,213.24,0Z" transform="translate(-69.276)" fill="#445ea0"/>
  <g id="Group_22" data-name="Group 22" transform="translate(125.865 101.604)">
    <circle id="Ellipse_12" data-name="Ellipse 12" cx="4.828" cy="4.828" r="4.828" fill="#d9eafc"/>
    <circle id="Ellipse_13" data-name="Ellipse 13" cx="3.42" cy="3.42" r="3.42" transform="translate(11.551 6.425)" fill="#d9eafc"/>
  </g>
</svg>
