<svg xmlns="http://www.w3.org/2000/svg" width="75.069" height="74.078" viewBox="0 0 75.069 74.078">
  <g id="village" transform="translate(0 -3.381)">
    <g id="Group_111" data-name="Group 111" transform="translate(0.513 50.334)">
      <g id="Group_110" data-name="Group 110">
        <path id="Path_193" data-name="Path 193" d="M28.221,323.616H12.941L3.5,333.057V350.74H37.662V333.057ZM17.869,348.541H5.7V334.612H17.869ZM7.254,332.413l6.6-6.6H25.111l-6.6,6.6ZM29.6,348.541H25.933v-7.7a1.833,1.833,0,1,1,3.665,0Zm5.865,0H31.8v-7.7a4.032,4.032,0,1,0-8.064,0v7.7H20.068V333.968l7.7-7.7,7.7,7.7Z" transform="translate(-3.5 -323.616)" fill="#fff"/>
      </g>
    </g>
    <g id="Group_113" data-name="Group 113" transform="translate(4.912 63.529)">
      <g id="Group_112" data-name="Group 112">
        <path id="Path_194" data-name="Path 194" d="M33.5,413.616v8.064h7.771v-8.064Zm5.572,5.865H35.7v-3.665h3.372Z" transform="translate(-33.5 -413.616)" fill="#fff"/>
      </g>
    </g>
    <g id="Group_115" data-name="Group 115" transform="translate(59.161 54.732)">
      <g id="Group_114" data-name="Group 114" transform="translate(0 0)">
        <path id="Path_195" data-name="Path 195" d="M403.5,353.616v8.064h11v-8.064Zm8.8,5.865h-6.6v-3.665h6.6Z" transform="translate(-403.5 -353.616)" fill="#fff"/>
      </g>
    </g>
    <g id="Group_117" data-name="Group 117" transform="translate(0 3.381)">
      <g id="Group_116" data-name="Group 116">
        <path id="Path_196" data-name="Path 196" d="M70.157,39.777V36.463l-9.441-9.441h-.822V22.769H53.3v4.252h-5.4L59.879,7.408,72.945,26.255,74.753,25,59.763,3.381l-9.6,15.7L41.855,9.655,26.324,30.79,11.076,15.655.416,28.14l1.672,1.428,9.121-10.682,13.8,13.7-5.287,7.2H0v2.2H32.769V55.612h4.4V70.127H74.556V50.978l-4.4-4.4v-4.6h4.912v-2.2H70.157ZM55.5,24.968h2.2v3.665H55.5ZM53.3,29.22v1.613h6.6V29.309L66.4,35.818H51.919l-6.6-6.6Zm14.662,8.8V44.38l-2.844-2.844H52.563V38.018ZM32.769,39.777H22.449l19.562-26.62,6.956,7.89-3.651,5.974H42.211l-9.441,9.441Zm5.865,9.735-1.466,1.466v2.435h-2.2V37.373l7.7-7.7,7.7,7.7v4.163H46.609L45.4,42.748a4.034,4.034,0,0,0-6.764,2.968Zm5.206-5.206-3.007,3.006v-1.6a1.834,1.834,0,0,1,3.007-1.409ZM48.9,67.928H45.232v-7.7a1.833,1.833,0,0,1,3.665,0Zm5.865,0H51.1v-7.7a4.032,4.032,0,0,0-8.064,0v7.7H39.367V51.889l7.7-7.7,7.7,7.7Zm17.594,0h-15.4v-15.4h15.4ZM70.8,50.334H56.317l-6.6-6.6H64.2Z" transform="translate(0 -3.381)" fill="#fff"/>
      </g>
    </g>
    <g id="Group_119" data-name="Group 119" transform="translate(20.16 3.415)">
      <g id="Group_118" data-name="Group 118">
        <path id="Path_197" data-name="Path 197" d="M143,3.616a5.5,5.5,0,1,0,5.5,5.5A5.5,5.5,0,0,0,143,3.616Zm0,8.8a3.3,3.3,0,1,1,3.3-3.3A3.3,3.3,0,0,1,143,12.413Z" transform="translate(-137.5 -3.616)" fill="#fff"/>
      </g>
    </g>
    <g id="Group_122" data-name="Group 122" transform="translate(23.561 56.437)">
      <g id="Group_121" data-name="Group 121" transform="translate(0 0)">
        <g id="Group_120" data-name="Group 120">
          <rect id="Rectangle_99" data-name="Rectangle 99" width="2.199" height="2.199" transform="translate(3.283 4.838) rotate(-45)" fill="#fff"/>
          <rect id="Rectangle_100" data-name="Rectangle 100" width="2.444" height="2.199" transform="translate(1.728 3.283) rotate(-135)" fill="#fff"/>
        </g>
      </g>
    </g>
    <g id="Group_125" data-name="Group 125" transform="translate(56.302 45.935)">
      <g id="Group_124" data-name="Group 124">
        <g id="Group_123" data-name="Group 123">
          <rect id="Rectangle_101" data-name="Rectangle 101" width="2.199" height="2.199" fill="#fff"/>
          <rect id="Rectangle_102" data-name="Rectangle 102" width="3.665" height="2.199" transform="translate(4.399)" fill="#fff"/>
        </g>
      </g>
    </g>
    <g id="Group_128" data-name="Group 128" transform="translate(45.554 47.347)">
      <g id="Group_127" data-name="Group 127" transform="translate(0 0)">
        <g id="Group_126" data-name="Group 126">
          <rect id="Rectangle_103" data-name="Rectangle 103" width="3.481" height="2.199" transform="translate(2.461 4.016) rotate(-135)" fill="#fff"/>
          <rect id="Rectangle_104" data-name="Rectangle 104" width="2.199" height="2.199" transform="translate(4.016 5.571) rotate(-45)" fill="#fff"/>
        </g>
      </g>
    </g>
    <g id="Group_131" data-name="Group 131" transform="translate(37.49 32.977)">
      <g id="Group_130" data-name="Group 130" transform="translate(0 0)">
        <g id="Group_129" data-name="Group 129">
          <rect id="Rectangle_105" data-name="Rectangle 105" width="2.199" height="2.199" transform="translate(1.555 6.541) rotate(-135)" fill="#fff"/>
          <rect id="Rectangle_106" data-name="Rectangle 106" width="2.651" height="2.199" transform="translate(3.11 1.875) rotate(-45)" fill="#fff"/>
        </g>
      </g>
    </g>
    <g id="Group_134" data-name="Group 134" transform="translate(61.698 16.497)">
      <g id="Group_133" data-name="Group 133" transform="translate(0 0)">
        <g id="Group_132" data-name="Group 132">
          <rect id="Rectangle_107" data-name="Rectangle 107" width="2.199" height="8.999" transform="matrix(0.822, -0.57, 0.57, 0.822, 0, 1.253)" fill="#fff"/>
          <rect id="Rectangle_108" data-name="Rectangle 108" width="2.199" height="2.199" transform="matrix(0.822, -0.57, 0.57, 0.822, 6.381, 10.456)" fill="#fff"/>
        </g>
      </g>
    </g>
    <g id="Group_137" data-name="Group 137" transform="translate(33.793 17.761)">
      <g id="Group_136" data-name="Group 136" transform="translate(0)">
        <g id="Group_135" data-name="Group 135">
          <rect id="Rectangle_109" data-name="Rectangle 109" width="2.199" height="2.199" transform="translate(1.772 11.597) rotate(-143.687)" fill="#fff"/>
          <rect id="Rectangle_110" data-name="Rectangle 110" width="8.379" height="2.199" transform="translate(2.604 6.752) rotate(-53.687)" fill="#fff"/>
        </g>
      </g>
    </g>
    <g id="Group_140" data-name="Group 140" transform="translate(3.761 23.019)">
      <g id="Group_139" data-name="Group 139">
        <g id="Group_138" data-name="Group 138">
          <rect id="Rectangle_111" data-name="Rectangle 111" width="2.199" height="2.199" transform="translate(1.673 9.404) rotate(-139.506)" fill="#fff"/>
          <rect id="Rectangle_112" data-name="Rectangle 112" width="6.092" height="2.199" transform="translate(2.857 4.633) rotate(-49.506)" fill="#fff"/>
        </g>
      </g>
    </g>
    <g id="Group_143" data-name="Group 143" transform="translate(15.208 27.491)">
      <g id="Group_142" data-name="Group 142" transform="translate(0 0)">
        <g id="Group_141" data-name="Group 141">
          <rect id="Rectangle_113" data-name="Rectangle 113" width="2.256" height="2.199" transform="matrix(-0.71, -0.705, 0.705, -0.71, 1.601, 3.15)" fill="#fff"/>
          <rect id="Rectangle_114" data-name="Rectangle 114" width="2.199" height="2.199" transform="matrix(0.705, -0.71, 0.71, 0.705, 3.16, 4.7)" fill="#fff"/>
        </g>
      </g>
    </g>
    <g id="Group_145" data-name="Group 145" transform="translate(2.346 43.883)">
      <g id="Group_144" data-name="Group 144">
        <rect id="Rectangle_115" data-name="Rectangle 115" width="5.865" height="2.199" fill="#fff"/>
      </g>
    </g>
    <g id="Group_147" data-name="Group 147" transform="translate(12.902 46.375)">
      <g id="Group_146" data-name="Group 146">
        <rect id="Rectangle_116" data-name="Rectangle 116" width="2.786" height="2.199" fill="#fff"/>
      </g>
    </g>
    <g id="Group_149" data-name="Group 149" transform="translate(19.794 43.589)">
      <g id="Group_148" data-name="Group 148">
        <rect id="Rectangle_117" data-name="Rectangle 117" width="6.598" height="2.199" fill="#fff"/>
      </g>
    </g>
    <g id="Group_151" data-name="Group 151" transform="translate(39.88 72.034)">
      <g id="Group_150" data-name="Group 150">
        <rect id="Rectangle_118" data-name="Rectangle 118" width="7.038" height="2.199" fill="#fff"/>
      </g>
    </g>
    <g id="Group_153" data-name="Group 153" transform="translate(51.17 75.113)">
      <g id="Group_152" data-name="Group 152">
        <rect id="Rectangle_119" data-name="Rectangle 119" width="2.199" height="2.199" fill="#fff"/>
      </g>
    </g>
    <g id="Group_155" data-name="Group 155" transform="translate(57.035 72.913)">
      <g id="Group_154" data-name="Group 154">
        <rect id="Rectangle_120" data-name="Rectangle 120" width="5.865" height="2.199" fill="#fff"/>
      </g>
    </g>
    <g id="Group_157" data-name="Group 157" transform="translate(66.858 75.259)">
      <g id="Group_156" data-name="Group 156">
        <rect id="Rectangle_121" data-name="Rectangle 121" width="5.718" height="2.199" fill="#fff"/>
      </g>
    </g>
  </g>
</svg>
