<svg xmlns="http://www.w3.org/2000/svg" width="70" height="70" viewBox="0 0 70 70">
  <g id="visitor" transform="translate(0 -0.002)">
    <g id="Group_41" data-name="Group 41" transform="translate(0 39.668)">
      <g id="Group_40" data-name="Group 40">
        <path id="Path_155" data-name="Path 155" d="M18.245,288.2a6.145,6.145,0,0,0-2.654-.982,8.1,8.1,0,0,0,3.075-5.891c0-7.714-4.442-9.333-8.167-9.333s-8.167,1.619-8.167,9.333a8.1,8.1,0,0,0,3.077,5.891A6.164,6.164,0,0,0,0,293.348v7.817a1.167,1.167,0,0,0,1.167,1.167H19.833A1.167,1.167,0,0,0,21,301.165v-7.817A6.173,6.173,0,0,0,18.245,288.2ZM4.727,280.1c.316-3.911,2.156-5.766,5.773-5.766,3.311,0,5.133,1.566,5.655,4.832l-3.887-2.333a1.166,1.166,0,0,0-1.707.631C9.97,279.233,6.783,279.9,4.727,280.1Zm.1,2.34c2-.164,5.6-.769,7.28-2.981l4.17,2.5c-.468,2.857-3.988,5.206-5.779,5.206A7.35,7.35,0,0,1,4.829,282.437Zm6.635,11.445-.964.966-.964-.965.964-2.411Zm7.2,6.116H2.333v-6.65a3.85,3.85,0,0,1,3.85-3.85h2.59l-1.691,4.234a1.167,1.167,0,0,0,.259,1.258l2.333,2.333a1.167,1.167,0,0,0,1.65,0l2.333-2.333a1.167,1.167,0,0,0,.259-1.258L12.223,289.5h2.594a3.85,3.85,0,0,1,3.85,3.85Z" transform="translate(0 -271.998)" fill="#fff"/>
      </g>
    </g>
    <g id="Group_43" data-name="Group 43" transform="translate(24.5 39.668)">
      <g id="Group_42" data-name="Group 42">
        <path id="Path_156" data-name="Path 156" d="M186.245,288.2a6.145,6.145,0,0,0-2.654-.982,8.1,8.1,0,0,0,3.075-5.891c0-7.714-4.441-9.333-8.167-9.333s-8.167,1.619-8.167,9.333a8.1,8.1,0,0,0,3.076,5.891,6.164,6.164,0,0,0-5.41,6.126v7.817a1.167,1.167,0,0,0,1.167,1.167h18.667A1.167,1.167,0,0,0,189,301.165v-7.817A6.173,6.173,0,0,0,186.245,288.2ZM172.727,280.1c.316-3.911,2.156-5.766,5.773-5.766,3.311,0,5.133,1.566,5.655,4.832l-3.887-2.333a1.166,1.166,0,0,0-1.707.631C177.97,279.233,174.783,279.9,172.727,280.1Zm.1,2.34c2-.164,5.6-.769,7.28-2.981l4.17,2.5c-.468,2.857-3.988,5.206-5.779,5.206A7.35,7.35,0,0,1,172.829,282.437Zm6.635,11.445-.964.966-.964-.965.964-2.411Zm7.2,6.116H170.333v-6.65a3.85,3.85,0,0,1,3.85-3.85h2.59l-1.694,4.234a1.167,1.167,0,0,0,.259,1.258l2.333,2.333a1.167,1.167,0,0,0,1.65,0l2.333-2.333a1.167,1.167,0,0,0,.259-1.258l-1.691-4.234h2.594a3.85,3.85,0,0,1,3.85,3.85Z" transform="translate(-168 -271.998)" fill="#fff"/>
      </g>
    </g>
    <g id="Group_45" data-name="Group 45" transform="translate(49 39.668)">
      <g id="Group_44" data-name="Group 44">
        <path id="Path_157" data-name="Path 157" d="M354.245,288.2a6.145,6.145,0,0,0-2.654-.982,8.1,8.1,0,0,0,3.075-5.891c0-7.714-4.441-9.333-8.167-9.333s-8.167,1.619-8.167,9.333a8.1,8.1,0,0,0,3.077,5.891,6.164,6.164,0,0,0-5.41,6.126v7.817a1.167,1.167,0,0,0,1.167,1.167h18.667A1.167,1.167,0,0,0,357,301.165v-7.817A6.173,6.173,0,0,0,354.245,288.2ZM340.727,280.1c.316-3.911,2.156-5.766,5.773-5.766,3.311,0,5.133,1.566,5.655,4.832l-3.887-2.333a1.166,1.166,0,0,0-1.707.631C345.97,279.233,342.783,279.9,340.727,280.1Zm.1,2.34c2-.164,5.6-.769,7.28-2.981l4.17,2.5c-.468,2.857-3.988,5.206-5.778,5.206A7.35,7.35,0,0,1,340.829,282.437Zm6.635,11.445-.964.966-.964-.965.964-2.411Zm7.2,6.116H338.333v-6.65a3.85,3.85,0,0,1,3.85-3.85h2.59l-1.694,4.234a1.167,1.167,0,0,0,.259,1.258l2.333,2.333a1.167,1.167,0,0,0,1.65,0l2.333-2.333a1.167,1.167,0,0,0,.259-1.258l-1.691-4.234h2.594a3.85,3.85,0,0,1,3.85,3.85Z" transform="translate(-336 -271.998)" fill="#fff"/>
      </g>
    </g>
    <g id="Group_47" data-name="Group 47" transform="translate(16.333 9.33)">
      <g id="Group_46" data-name="Group 46">
        <path id="Path_158" data-name="Path 158" d="M149.33,89.638V74.471a1.167,1.167,0,0,0-1.167-1.167h-10.5V69.8a1.167,1.167,0,0,0-1.167-1.167h-7.088a9.312,9.312,0,0,0-8.365-4.667A9.584,9.584,0,0,0,112,73.648a15.983,15.983,0,0,0,2.5,8.6l4.7,7.392H117.83v2.333H150.5V89.638Zm-24.5,0h-1.374l1.374-2.16Zm-3.5-1.006-4.86-7.639a13.649,13.649,0,0,1-2.14-7.345,7.233,7.233,0,0,1,6.784-7.343h.216a7,7,0,0,1,7,7v.343A13.65,13.65,0,0,1,126.19,81Zm14,1.006h-8.167V83.81l1-1.565a15.983,15.983,0,0,0,2.5-8.6V73.3a9.381,9.381,0,0,0-.3-2.333h4.97Zm8.167,0h-2.333v-3.5H143.5ZM147,76.8h-2.333v2.333H147V80.3h-2.333v2.333H147v7H145.83V84.971a1.167,1.167,0,0,0-1.167-1.167H140a1.167,1.167,0,0,0-1.167,1.167v4.667h-1.167v-7H140V80.3h-2.333V79.138H140V76.8h-2.333V75.638H147Z" transform="translate(-111.996 -63.967)" fill="#fff"/>
      </g>
    </g>
    <g id="Group_49" data-name="Group 49" transform="translate(36.167 17.501)">
      <g id="Group_48" data-name="Group 48">
        <rect id="Rectangle_76" data-name="Rectangle 76" width="2.333" height="2.333" fill="#fff"/>
      </g>
    </g>
    <g id="Group_51" data-name="Group 51" transform="translate(45.5 22.168)">
      <g id="Group_50" data-name="Group 50">
        <rect id="Rectangle_77" data-name="Rectangle 77" width="2.333" height="2.333" fill="#fff"/>
      </g>
    </g>
    <g id="Group_53" data-name="Group 53" transform="translate(45.5 25.668)">
      <g id="Group_52" data-name="Group 52">
        <rect id="Rectangle_78" data-name="Rectangle 78" width="2.333" height="2.333" fill="#fff"/>
      </g>
    </g>
    <g id="Group_55" data-name="Group 55" transform="translate(36.167 21.001)">
      <g id="Group_54" data-name="Group 54">
        <rect id="Rectangle_79" data-name="Rectangle 79" width="2.333" height="2.333" fill="#fff"/>
      </g>
    </g>
    <g id="Group_57" data-name="Group 57" transform="translate(36.167 24.501)">
      <g id="Group_56" data-name="Group 56">
        <rect id="Rectangle_80" data-name="Rectangle 80" width="2.333" height="2.333" fill="#fff"/>
      </g>
    </g>
    <g id="Group_59" data-name="Group 59" transform="translate(32.667 28.001)">
      <g id="Group_58" data-name="Group 58">
        <rect id="Rectangle_81" data-name="Rectangle 81" width="2.333" height="2.333" fill="#fff"/>
      </g>
    </g>
    <g id="Group_61" data-name="Group 61" transform="translate(36.167 28.001)">
      <g id="Group_60" data-name="Group 60">
        <rect id="Rectangle_82" data-name="Rectangle 82" width="2.333" height="2.333" fill="#fff"/>
      </g>
    </g>
    <g id="Group_63" data-name="Group 63" transform="translate(32.667 31.501)">
      <g id="Group_62" data-name="Group 62">
        <rect id="Rectangle_83" data-name="Rectangle 83" width="2.333" height="2.333" fill="#fff"/>
      </g>
    </g>
    <g id="Group_65" data-name="Group 65" transform="translate(36.167 31.501)">
      <g id="Group_64" data-name="Group 64">
        <rect id="Rectangle_84" data-name="Rectangle 84" width="2.333" height="2.333" fill="#fff"/>
      </g>
    </g>
    <g id="Group_67" data-name="Group 67" transform="translate(62.454 24.344)">
      <g id="Group_66" data-name="Group 66">
        <path id="Path_159" data-name="Path 159" d="M430.544,166.918l-2.288.461c.144.713.26,1.442.35,2.166l2.314-.275C430.825,168.484,430.7,167.693,430.544,166.918Z" transform="translate(-428.256 -166.918)" fill="#fff"/>
      </g>
    </g>
    <g id="Group_69" data-name="Group 69" transform="translate(4.877 24.4)">
      <g id="Group_68" data-name="Group 68">
        <path id="Path_160" data-name="Path 160" d="M33.813,167.3c-.158.779-.281,1.569-.373,2.349l2.317.273c.084-.719.2-1.449.343-2.17Z" transform="translate(-33.44 -167.302)" fill="#fff"/>
      </g>
    </g>
    <g id="Group_71" data-name="Group 71" transform="translate(59.409 15.459)">
      <g id="Group_70" data-name="Group 70">
        <path id="Path_161" data-name="Path 161" d="M409.408,105.99l-2.032,1.146c.358.634.7,1.29,1,1.954l2.115-.985C410.161,107.388,409.794,106.676,409.408,105.99Z" transform="translate(-407.376 -105.99)" fill="#fff"/>
      </g>
    </g>
    <g id="Group_73" data-name="Group 73" transform="translate(56.959 11.513)">
      <g id="Group_72" data-name="Group 72">
        <path id="Path_162" data-name="Path 162" d="M392.408,78.934l-1.832,1.449c.452.568.888,1.167,1.3,1.775l1.934-1.3C393.364,80.2,392.893,79.55,392.408,78.934Z" transform="translate(-390.576 -78.934)" fill="#fff"/>
      </g>
    </g>
    <g id="Group_75" data-name="Group 75" transform="translate(9.782 11.551)">
      <g id="Group_74" data-name="Group 74">
        <path id="Path_163" data-name="Path 163" d="M68.482,79.2c-.491.618-.963,1.266-1.4,1.922l1.939,1.3c.4-.605.84-1.2,1.293-1.776Z" transform="translate(-67.08 -79.198)" fill="#fff"/>
      </g>
    </g>
    <g id="Group_77" data-name="Group 77" transform="translate(53.975 8.029)">
      <g id="Group_76" data-name="Group 76">
        <path id="Path_164" data-name="Path 164" d="M371.694,55.046l-1.582,1.715c.54.5,1.064,1.021,1.555,1.551l1.711-1.586C372.847,56.152,372.28,55.586,371.694,55.046Z" transform="translate(-370.112 -55.046)" fill="#fff"/>
      </g>
    </g>
    <g id="Group_79" data-name="Group 79" transform="translate(7.453 15.497)">
      <g id="Group_78" data-name="Group 78">
        <path id="Path_165" data-name="Path 165" d="M52.188,106.254c-.385.685-.75,1.4-1.084,2.121l2.116.98c.309-.667.646-1.327,1-1.955Z" transform="translate(-51.104 -106.254)" fill="#fff"/>
      </g>
    </g>
    <g id="Group_81" data-name="Group 81" transform="translate(5.804 19.82)">
      <g id="Group_80" data-name="Group 80">
        <path id="Path_166" data-name="Path 166" d="M40.536,135.894c-.277.747-.524,1.508-.736,2.265l2.245.633c.2-.7.426-1.4.681-2.091Z" transform="translate(-39.8 -135.894)" fill="#fff"/>
      </g>
    </g>
    <g id="Group_83" data-name="Group 83" transform="translate(12.729 8.057)">
      <g id="Group_82" data-name="Group 82">
        <path id="Path_167" data-name="Path 167" d="M88.97,55.238c-.583.536-1.146,1.1-1.682,1.682L89,58.5c.49-.534,1.017-1.055,1.552-1.552Z" transform="translate(-87.288 -55.238)" fill="#fff"/>
      </g>
    </g>
    <g id="Group_85" data-name="Group 85" transform="translate(61.257 19.772)">
      <g id="Group_84" data-name="Group 84">
        <path id="Path_168" data-name="Path 168" d="M422.236,135.566l-2.187.811c.255.687.485,1.39.684,2.088l2.245-.638C422.76,137.07,422.51,136.31,422.236,135.566Z" transform="translate(-420.048 -135.566)" fill="#fff"/>
      </g>
    </g>
    <g id="Group_87" data-name="Group 87" transform="translate(24.487 1.139)">
      <g id="Group_86" data-name="Group 86">
        <path id="Path_169" data-name="Path 169" d="M170.173,7.8c-.765.217-1.527.467-2.261.736l.808,2.188c.678-.25,1.381-.478,2.088-.679Z" transform="translate(-167.912 -7.798)" fill="#fff"/>
      </g>
    </g>
    <g id="Group_89" data-name="Group 89" transform="translate(29.065 0.213)">
      <g id="Group_88" data-name="Group 88">
        <path id="Path_170" data-name="Path 170" d="M201.654,1.446c-.779.092-1.57.217-2.35.37l.451,2.29c.721-.142,1.451-.259,2.171-.343Z" transform="translate(-199.304 -1.446)" fill="#fff"/>
      </g>
    </g>
    <g id="Group_91" data-name="Group 91" transform="translate(33.787 0.002)">
      <g id="Group_90" data-name="Group 90" transform="translate(0 0)">
        <path id="Path_171" data-name="Path 171" d="M231.68.025l.089,2.333c.728-.026,1.47-.028,2.2,0L234.06.025C233.27-.007,232.47,0,231.68.025Z" transform="translate(-231.68 -0.002)" fill="#fff"/>
      </g>
    </g>
    <g id="Group_93" data-name="Group 93" transform="translate(20.17 2.785)">
      <g id="Group_92" data-name="Group 92">
        <path id="Path_172" data-name="Path 172" d="M140.431,19.086c-.715.33-1.429.7-2.119,1.083l1.143,2.035c.637-.358,1.294-.7,1.955-1Z" transform="translate(-138.312 -19.086)" fill="#fff"/>
      </g>
    </g>
    <g id="Group_95" data-name="Group 95" transform="translate(38.267 0.206)">
      <g id="Group_94" data-name="Group 94">
        <path id="Path_173" data-name="Path 173" d="M262.667,1.4,262.4,3.715c.718.083,1.448.2,2.171.338l.447-2.29C264.235,1.61,263.45,1.488,262.667,1.4Z" transform="translate(-262.4 -1.398)" fill="#fff"/>
      </g>
    </g>
    <g id="Group_97" data-name="Group 97" transform="translate(50.524 5.086)">
      <g id="Group_96" data-name="Group 96">
        <path id="Path_174" data-name="Path 174" d="M347.742,34.862,346.448,36.8c.6.4,1.2.835,1.778,1.29l1.442-1.834C349.042,35.767,348.394,35.3,347.742,34.862Z" transform="translate(-346.448 -34.862)" fill="#fff"/>
      </g>
    </g>
    <g id="Group_99" data-name="Group 99" transform="translate(42.573 1.124)">
      <g id="Group_98" data-name="Group 98">
        <path id="Path_175" data-name="Path 175" d="M292.555,7.694l-.626,2.247c.7.2,1.4.422,2.088.674l.8-2.19C294.078,8.151,293.316,7.906,292.555,7.694Z" transform="translate(-291.928 -7.694)" fill="#fff"/>
      </g>
    </g>
    <g id="Group_101" data-name="Group 101" transform="translate(16.221 5.114)">
      <g id="Group_100" data-name="Group 100">
        <path id="Path_176" data-name="Path 176" d="M113.153,35.054c-.66.444-1.308.915-1.922,1.4l1.444,1.832c.567-.448,1.167-.883,1.778-1.295Z" transform="translate(-111.232 -35.054)" fill="#fff"/>
      </g>
    </g>
    <g id="Group_103" data-name="Group 103" transform="translate(46.69 2.764)">
      <g id="Group_102" data-name="Group 102">
        <path id="Path_177" data-name="Path 177" d="M321.135,18.942l-.975,2.119c.659.3,1.319.641,1.96,1l1.138-2.037C322.565,19.635,321.852,19.271,321.135,18.942Z" transform="translate(-320.16 -18.942)" fill="#fff"/>
      </g>
    </g>
    <g id="Group_105" data-name="Group 105" transform="translate(21 14.001)">
      <g id="Group_104" data-name="Group 104">
        <path id="Path_178" data-name="Path 178" d="M148.667,96a4.667,4.667,0,1,0,4.667,4.667A4.667,4.667,0,0,0,148.667,96Zm0,7A2.333,2.333,0,1,1,151,100.665,2.333,2.333,0,0,1,148.667,103Z" transform="translate(-144 -95.998)" fill="#fff"/>
      </g>
    </g>
  </g>
</svg>
